# xmcd
#
# Track frame offsets:
#	150
#	25511
#	44957
#	68301
#	88269
#	116359
#	147402
#	174450
#	215561
#	229553
#	246543
#	274863
#
# Disc length: 4102 seconds
#
# Revision: 1
# Processed by: cddbd v1.5.2PL0 Copyright (c) Steve Scherf et al.
# Submitted via: audiograbber 1.83.01
#
DISCID=ac10040c
DTITLE=Gotan Project - Club Secreto
DYEAR=1900
DGENRE=
TTITLE0=Arrabal   (Haaksman and Haaksman Hopper rmx)
TTITLE1=Peligro   (Lagartijeando rmx)
TTITLE2=Época   (DJ Muro mix)
TTITLE3=La Gloria   (3Fulanos feat. Magnus Mefisto - Mäuss rmx)
TTITLE4=Rayuela   (Daniel Haaksman rmx)
TTITLE5=Santa Maria (Del Buen Ayre)   (Alex James rmx)
TTITLE6=La Cruz Del Sur   (Interfearance vocal mix)
TTITLE7=Panamericana   (Michel Cleis remix)
TTITLE8=Mi Confesión   (Sandrinho DJ's Aumentaosom remix)
TTITLE9=La Gloria   (Poirier remix)
TTITLE10=De Hombre A Hombre   (Nicolas Repac rmx)
TTITLE11=La Del Ruso   (Calexico version)
EXTD=
EXTT0=
EXTT1=
EXTT2=
EXTT3=
EXTT4=
EXTT5=
EXTT6=
EXTT7=
EXTT8=
EXTT9=
EXTT10=
EXTT11=
PLAYORDER=
